<svg id="visual" viewBox="0 0 900 600" width="900" height="600" xmlns="http://www.w3.org/2000/svg" xmlns:xlink="http://www.w3.org/1999/xlink" version="1.1"><path d="M0 49L13.7 58C27.3 67 54.7 85 82 94C109.3 103 136.7 103 163.8 106C191 109 218 115 245.2 116C272.3 117 299.7 113 327 110C354.3 107 381.7 105 409 102C436.3 99 463.7 95 491 99C518.3 103 545.7 115 573 117C600.3 119 627.7 111 654.8 100C682 89 709 75 736.2 76C763.3 77 790.7 93 818 96C845.3 99 872.7 89 886.3 84L900 79L900 0L886.3 0C872.7 0 845.3 0 818 0C790.7 0 763.3 0 736.2 0C709 0 682 0 654.8 0C627.7 0 600.3 0 573 0C545.7 0 518.3 0 491 0C463.7 0 436.3 0 409 0C381.7 0 354.3 0 327 0C299.7 0 272.3 0 245.2 0C218 0 191 0 163.8 0C136.7 0 109.3 0 82 0C54.7 0 27.3 0 13.7 0L0 0Z" fill="#5b91ec"></path><path d="M0 217L13.7 216C27.3 215 54.7 213 82 223C109.3 233 136.7 255 163.8 258C191 261 218 245 245.2 232C272.3 219 299.7 209 327 215C354.3 221 381.7 243 409 243C436.3 243 463.7 221 491 213C518.3 205 545.7 211 573 216C600.3 221 627.7 225 654.8 232C682 239 709 249 736.2 266C763.3 283 790.7 307 818 317C845.3 327 872.7 323 886.3 321L900 319L900 77L886.3 82C872.7 87 845.3 97 818 94C790.7 91 763.3 75 736.2 74C709 73 682 87 654.8 98C627.7 109 600.3 117 573 115C545.7 113 518.3 101 491 97C463.7 93 436.3 97 409 100C381.7 103 354.3 105 327 108C299.7 111 272.3 115 245.2 114C218 113 191 107 163.8 104C136.7 101 109.3 101 82 92C54.7 83 27.3 65 13.7 56L0 47Z" fill="#8bb9ff"></path><path d="M0 409L13.7 412C27.3 415 54.7 421 82 423C109.3 425 136.7 423 163.8 424C191 425 218 429 245.2 429C272.3 429 299.7 425 327 431C354.3 437 381.7 453 409 455C436.3 457 463.7 445 491 435C518.3 425 545.7 417 573 411C600.3 405 627.7 401 654.8 410C682 419 709 441 736.2 448C763.3 455 790.7 447 818 444C845.3 441 872.7 443 886.3 444L900 445L900 317L886.3 319C872.7 321 845.3 325 818 315C790.7 305 763.3 281 736.2 264C709 247 682 237 654.8 230C627.7 223 600.3 219 573 214C545.7 209 518.3 203 491 211C463.7 219 436.3 241 409 241C381.7 241 354.3 219 327 213C299.7 207 272.3 217 245.2 230C218 243 191 259 163.8 256C136.7 253 109.3 231 82 221C54.7 211 27.3 213 13.7 214L0 215Z" fill="#aacbff"></path><path d="M0 493L13.7 488C27.3 483 54.7 473 82 472C109.3 471 136.7 479 163.8 488C191 497 218 507 245.2 508C272.3 509 299.7 501 327 501C354.3 501 381.7 509 409 515C436.3 521 463.7 525 491 519C518.3 513 545.7 497 573 484C600.3 471 627.7 461 654.8 470C682 479 709 507 736.2 514C763.3 521 790.7 507 818 507C845.3 507 872.7 521 886.3 528L900 535L900 443L886.3 442C872.7 441 845.3 439 818 442C790.7 445 763.3 453 736.2 446C709 439 682 417 654.8 408C627.7 399 600.3 403 573 409C545.7 415 518.3 423 491 433C463.7 443 436.3 455 409 453C381.7 451 354.3 435 327 429C299.7 423 272.3 427 245.2 427C218 427 191 423 163.8 422C136.7 421 109.3 423 82 421C54.7 419 27.3 413 13.7 410L0 407Z" fill="#8bb9ff"></path><path d="M0 601L13.7 601C27.3 601 54.7 601 82 601C109.3 601 136.7 601 163.8 601C191 601 218 601 245.2 601C272.3 601 299.7 601 327 601C354.3 601 381.7 601 409 601C436.3 601 463.7 601 491 601C518.3 601 545.7 601 573 601C600.3 601 627.7 601 654.8 601C682 601 709 601 736.2 601C763.3 601 790.7 601 818 601C845.3 601 872.7 601 886.3 601L900 601L900 533L886.3 526C872.7 519 845.3 505 818 505C790.7 505 763.3 519 736.2 512C709 505 682 477 654.8 468C627.7 459 600.3 469 573 482C545.7 495 518.3 511 491 517C463.7 523 436.3 519 409 513C381.7 507 354.3 499 327 499C299.7 499 272.3 507 245.2 506C218 505 191 495 163.8 486C136.7 477 109.3 469 82 470C54.7 471 27.3 481 13.7 486L0 491Z" fill="#5b91ec"></path></svg>